<svg width="48" height="48" viewBox="0 0 48 48" fill="none" xmlns="http://www.w3.org/2000/svg">
<path d="M28.4863 6.48626C28.4863 8.96395 26.4777 10.9725 24 10.9725C21.5223 10.9725 19.5138 8.96395 19.5138 6.48626C19.5138 4.00857 21.5223 2 24 2C26.4777 2 28.4863 4.00857 28.4863 6.48626Z" fill="#887B55"/>
<path d="M21.3948 13.0489C19.3452 13.0489 17.6047 14.55 17.3036 16.5773L15.6574 27.6603C15.3761 29.5543 16.6853 31.2732 18.5085 31.5687L19.3107 45.3507C19.3319 45.7153 19.6338 46 19.9989 46H28.0011C28.3663 46 28.6681 45.7153 28.6893 45.3507L29.4916 31.5687C31.3147 31.2732 32.6239 29.5543 32.3426 27.6603L30.6964 16.5773C30.3953 14.55 28.6548 13.0489 26.6052 13.0489H21.3948Z" fill="#887B55"/>
</svg>
